<?xml version="1.0" encoding="utf-8"?>
<!-- Generator: Adobe Illustrator 21.0.0, SVG Export Plug-In . SVG Version: 6.00 Build 0)  -->
<svg version="1.1" id="Camada_1" xmlns="http://www.w3.org/2000/svg" xmlns:xlink="http://www.w3.org/1999/xlink" x="0px" y="0px"
	 viewBox="0 0 106 32" style="enable-background:new 0 0 106 32;" xml:space="preserve">
<style type="text/css">
	.st0{fill:none;}
</style>
<g>
	<g>
		<g>
			<path d="M37.4,7.7l-4.1,15.5h0h-3.5h0L25.5,7.7h3.6l2.4,8.9l2.4-8.9H37.4z"/>
		</g>
		<g>
			<path d="M41.9,7.7v15.5h-3.6V7.7H41.9z"/>
		</g>
		<g>
			<path d="M51.8,14c0.6,0.3,1.1,0.6,1.5,1c0.4,0.4,0.8,0.9,1,1.5c0.3,0.6,0.4,1.2,0.4,1.9c0,0.7-0.1,1.3-0.4,1.9
				c-0.3,0.6-0.6,1.1-1,1.5c-0.4,0.4-0.9,0.8-1.5,1c-0.6,0.3-1.2,0.4-1.9,0.4h-7.1v-3.6h7.1c0.3,0,0.6-0.1,0.9-0.4
				c0.2-0.2,0.3-0.5,0.3-0.8c0-0.3-0.1-0.6-0.3-0.9c-0.2-0.2-0.5-0.3-0.9-0.3h-2.4c-0.7,0-1.3-0.1-1.9-0.4c-0.6-0.3-1.1-0.6-1.5-1
				c-0.4-0.4-0.8-0.9-1-1.5c-0.3-0.6-0.4-1.2-0.4-1.9c0-0.7,0.1-1.3,0.4-1.9c0.3-0.6,0.6-1.1,1-1.5c0.4-0.4,0.9-0.8,1.5-1
				c0.6-0.3,1.2-0.4,1.9-0.4h4.8v3.6h-4.8c-0.3,0-0.6,0.1-0.9,0.3c-0.2,0.2-0.3,0.5-0.3,0.8c0,0.3,0.1,0.6,0.3,0.9
				c0.2,0.2,0.5,0.3,0.9,0.3h2.4C50.6,13.6,51.2,13.8,51.8,14z"/>
		</g>
		<g>
			<path d="M67.5,18.4c0,0.7-0.1,1.3-0.4,1.9c-0.3,0.6-0.6,1.1-1,1.5c-0.4,0.4-0.9,0.8-1.5,1c-0.6,0.3-1.2,0.4-1.9,0.4h-2.4
				c-0.7,0-1.3-0.1-1.9-0.4c-0.6-0.3-1.1-0.6-1.5-1c-0.4-0.4-0.8-0.9-1-1.5c-0.3-0.6-0.4-1.2-0.4-1.9V7.7h3.6v10.7
				c0,0.3,0.1,0.6,0.3,0.8c0.2,0.2,0.5,0.4,0.9,0.4h2.4c0.3,0,0.6-0.1,0.9-0.4c0.2-0.2,0.3-0.5,0.3-0.8V7.7h3.6V18.4z"/>
		</g>
		<g>
			<path d="M76.7,23.2l-2.4-8.9l-2.4,8.9h-3.6l4.1-15.5h0h3.5h0l4.1,15.5H76.7z"/>
		</g>
		<g>
			<path d="M88.6,19.6v3.6H85c-0.7,0-1.3-0.1-1.9-0.4c-0.6-0.3-1.1-0.6-1.5-1c-0.4-0.4-0.8-0.9-1-1.5c-0.3-0.6-0.4-1.2-0.4-1.9V7.7
				h3.6v10.7c0,0.3,0.1,0.6,0.3,0.8c0.2,0.2,0.5,0.4,0.8,0.4H88.6z"/>
		</g>
		<g>
			<path d="M97.8,19.6v3.6h-3.6c-0.7,0-1.3-0.1-1.9-0.4c-0.6-0.3-1.1-0.6-1.5-1c-0.4-0.4-0.8-0.9-1-1.5c-0.3-0.6-0.4-1.2-0.4-1.9
				V7.7h3.6v10.7c0,0.3,0.1,0.6,0.3,0.8c0.2,0.2,0.5,0.4,0.8,0.4H97.8z"/>
		</g>
		<g>
			<path d="M15.7,3.7v1.6L12,15.5l-3.1-2.6C10.5,8.3,14.1,5,15.7,3.7z"/>
		</g>
		<g>
			<path d="M15.7,27.1v1.1C15,28.2,13.5,28,12,27c-0.9-0.6-1.7-1.5-2.3-2.6c-0.8-1.3-1.3-3-1.5-4.9c-0.3-1.9-0.1-3.8,0.5-5.7
				l3.2,2.7l1.6,4.5L15.7,27.1z"/>
		</g>
		<g>
			<path d="M20.3,15.5L16.5,5.3V3.7c1.6,1.3,5.2,4.6,6.9,9.2L20.3,15.5z"/>
		</g>
		<g>
			<path d="M24.2,19.5c-0.3,1.9-0.8,3.6-1.5,4.9c-0.6,1.1-1.4,2-2.3,2.6c-1.5,1.1-3,1.2-3.8,1.3v-1.1l2.3-6.2l1.6-4.5l3.2-2.7
				C24.3,15.7,24.4,17.6,24.2,19.5z"/>
		</g>
		<g>
			<polygon points="16.1,6.7 19.6,16.2 16.8,24 16.1,25.8 12.6,16.2 			"/>
		</g>
		<g>
			<g>
				<path d="M78.5,28.2l1.1-3.1h1.1l1.1,3.1v0h-0.7l-0.3-0.7h-1.3l-0.3,0.7L78.5,28.2L78.5,28.2z M80.7,26.9l-0.2-0.6l-0.2-0.7h-0.1
					l-0.2,0.7l-0.2,0.6H80.7z"/>
			</g>
			<g>
				<path d="M83.7,28.3c-0.6,0-1-0.1-1.3-0.4c-0.3-0.3-0.4-0.7-0.4-1.2c0-1.1,0.6-1.6,1.7-1.6c0.2,0,0.3,0,0.5,0
					c0.2,0,0.3,0,0.5,0.1v0.6c-0.2,0-0.4-0.1-0.5-0.1c-0.1,0-0.3,0-0.4,0c-0.2,0-0.4,0-0.5,0.1c-0.1,0-0.2,0.1-0.3,0.2
					c-0.1,0.1-0.1,0.2-0.2,0.3c0,0.1,0,0.3,0,0.5c0,0.2,0,0.3,0,0.5c0,0.1,0.1,0.2,0.2,0.3c0.1,0.1,0.2,0.1,0.3,0.2
					c0.1,0,0.3,0.1,0.4,0.1c0,0,0.1,0,0.2,0c0.1,0,0.1,0,0.2,0v-1h0.7v1.5c-0.1,0-0.2,0-0.3,0.1c-0.1,0-0.2,0-0.3,0.1
					c-0.1,0-0.2,0-0.3,0C83.8,28.3,83.7,28.3,83.7,28.3z"/>
			</g>
			<g>
				<path d="M85.3,25.1h2.4v0.6H86v0.7h1.5v0.6H86v0.7h1.7v0.6h-2.5V25.1z"/>
			</g>
			<g>
				<path d="M88.2,25.1h0.6l1.4,1.7l0.3,0.4h0v-2.1h0.7v3.2h-0.6l-1.4-1.7l-0.3-0.4h0v2.1h-0.7V25.1z"/>
			</g>
			<g>
				<path d="M93.4,28.3c-0.6,0-1-0.1-1.3-0.4c-0.3-0.3-0.4-0.7-0.4-1.2c0-1.1,0.5-1.6,1.6-1.6c0.1,0,0.2,0,0.3,0c0.1,0,0.3,0,0.4,0
					v0.6c-0.1,0-0.2,0-0.3,0c-0.1,0-0.1,0-0.2,0c-0.1,0-0.1,0-0.1,0c0,0-0.1,0-0.1,0c-0.2,0-0.3,0-0.4,0.1c-0.1,0-0.2,0.1-0.3,0.2
					c-0.1,0.1-0.1,0.2-0.2,0.3c0,0.1,0,0.3,0,0.5c0,0.2,0,0.3,0,0.5c0,0.1,0.1,0.2,0.1,0.3c0.1,0.1,0.2,0.1,0.3,0.2
					c0.1,0,0.3,0.1,0.4,0.1c0,0,0.1,0,0.2,0c0.1,0,0.1,0,0.2,0c0.1,0,0.1,0,0.2,0c0.1,0,0.1,0,0.2,0v0.6c-0.1,0-0.2,0-0.4,0.1
					C93.6,28.3,93.5,28.3,93.4,28.3z"/>
			</g>
			<g>
				<path d="M95.9,27.2l-1.2-2.2h0.8l0.6,1.1l0.2,0.4h0l0.1-0.4l0.6-1.1h0.8l-1.2,2.1v1h-0.8V27.2z"/>
			</g>
		</g>
	</g>
	<rect x="4.6" y="0.5" class="st0" width="96.8" height="31"/>
</g>
</svg>
